                    ---::HD DESI ROCKERS RELEASES::---




General
Complete name                    : CATS AND DOGS- THE REVENGE OF KITTY GALORE BRRIP 720P[HINDI]~ i2009ak.mkv
Format                           : Matroska
File size                        : 1.32 GiB
Duration                         : 1h 18mn
Overall bit rate                 : 2 400 Kbps
Movie name                       : CATS AND DOGS: THE REVENGE OF KITTY GALORE BRRIP 720P[HINDI]~ i2009ak
Encoded date                     : UTC 2010-12-23 01:29:24
Writing application              : mkvmerge v2.9.8 ('C'est le bon') built on Aug 13 2009 12:49:06
Writing library                  : libebml v0.7.7 + libmatroska v0.8.1

Video
ID                               : 2
Format                           : AVC
Format/Info                      : Advanced Video Codec
Format profile                   : High@L4.1
Format settings, CABAC           : Yes
Format settings, ReFrames        : 8 frames
Muxing mode                      : Container profile=Unknown@4.1
Codec ID                         : V_MPEG4/ISO/AVC
Duration                         : 1h 18mn
Bit rate                         : 2 224 Kbps
Nominal bit rate                 : 2 182 Kbps
Width                            : 1 280 pixels
Height                           : 720 pixels
Display aspect ratio             : 16:9
Frame rate                       : 25.000 fps
Original frame rate              : 23.976 fps
Resolution                       : 24 bits
Colorimetry                      : 4:2:0
Scan type                        : Progressive
Bits/(Pixel*Frame)               : 0.097
Stream size                      : 1.23 GiB (93%)
Writing library                  : x264 core 98 r1649 c54c47d
Encoding settings                : cabac=1 / ref=8 / deblock=1:-3:-3 / analyse=0x3:0x113 / me=umh / subme=9 / psy=1 / psy_rd=1.00:0.00 / mixed_ref=1 / me_range=32 / chroma_me=1 / trellis=1 / 8x8dct=1 / cqm=0 / deadzone=21,11 / fast_pskip=0 / chroma_qp_offset=-2 / threads=3 / sliced_threads=0 / nr=0 / decimate=0 / interlaced=0 / constrained_intra=0 / bframes=4 / b_pyramid=2 / b_adapt=2 / b_bias=0 / direct=1 / weightb=1 / weightp=2 / keyint=250 / keyint_min=25 / scenecut=40 / intra_refresh=0 / rc_lookahead=40 / rc=2pass / mbtree=1 / bitrate=2182 / ratetol=1.0 / qcomp=0.60 / qpmin=10 / qpmax=51 / qpstep=4 / cplxblur=20.0 / qblur=0.5 / ip_ratio=1.40 / aq=1:1.00
Language                         : English

Audio
ID                               : 1
Format                           : MPEG Audio
Format version                   : Version 1
Format profile                   : Layer 3
Format_Settings_Mode             : Joint stereo
Codec ID                         : A_MPEG/L3
Codec ID/Hint                    : MP3
Duration                         : 1h 18mn
Bit rate mode                    : Constant
Bit rate                         : 128 Kbps
Channel(s)                       : 2 channels
Sampling rate                    : 44.1 KHz
Resolution                       : 16 bits
Video delay                      : 1s 500ms
Stream size                      : 72.3 MiB (5%)
Title                            : HINDI AUDIO ~ i2009ak
Writing library                  : LAME3.98.2
Language                         : Hindi

SCREENSHOTS

 
http://i774.photobucket.com/albums/yy22/i2009ak/CATS%20AND%20DOGS/vlcsnap-00001.jpg 
http://i774.photobucket.com/albums/yy22/i2009ak/CATS%20AND%20DOGS/vlcsnap-00002.jpg 
http://i774.photobucket.com/albums/yy22/i2009ak/CATS%20AND%20DOGS/vlcsnap-00003.jpg 
http://i774.photobucket.com/albums/yy22/i2009ak/CATS%20AND%20DOGS/vlcsnap-00004.jpg 
http://i774.photobucket.com/albums/yy22/i2009ak/CATS%20AND%20DOGS/vlcsnap-00005.jpg 
http://i774.photobucket.com/albums/yy22/i2009ak/CATS%20AND%20DOGS/vlcsnap-00007.jpg 
http://i774.photobucket.com/albums/yy22/i2009ak/CATS%20AND%20DOGS/vlcsnap-00008.jpg 
http://i774.photobucket.com/albums/yy22/i2009ak/CATS%20AND%20DOGS/vlcsnap-00009.jpg 
http://i774.photobucket.com/albums/yy22/i2009ak/CATS%20AND%20DOGS/vlcsnap-00010.jpg 
http://i774.photobucket.com/albums/yy22/i2009ak/CATS%20AND%20DOGS/vlcsnap-00015.jpg 
http://i774.photobucket.com/albums/yy22/i2009ak/CATS%20AND%20DOGS/vlcsnap-00013.jpg